<svg width="174" height="40" viewBox="0 0 174 40" fill="none" xmlns="http://www.w3.org/2000/svg">
<g clip-path="url(#clip0_1904_6)">
<path d="M25 20C25 17.3478 26.0536 14.8043 27.9289 12.9289C29.8043 11.0536 32.3478 10 35 10C37.6522 10 40.1957 11.0536 42.0711 12.9289C43.9464 14.8043 45 17.3478 45 20C45 22.6522 43.9464 25.1957 42.0711 27.0711C40.1957 28.9464 37.6522 30 35 30C32.3478 30 29.8043 28.9464 27.9289 27.0711C26.0536 25.1957 25 22.6522 25 20ZM35 11.25C34.8938 11.25 34.7875 11.2525 34.6812 11.2563C34.8287 11.5338 34.9975 11.8863 35.1475 12.285C35.4975 13.2175 35.8063 14.5563 35.2538 15.7325C34.7488 16.8075 33.8825 17.0875 33.2138 17.26L33.0925 17.2913C32.46 17.4538 32.1488 17.5338 31.93 17.8663C31.7175 18.1875 31.7687 18.5838 31.9762 19.2575L32.0238 19.4125C32.1075 19.6762 32.2037 19.9838 32.2537 20.2725C32.3162 20.63 32.3288 21.0675 32.1125 21.485C31.8875 21.9137 31.595 22.2025 31.25 22.39C30.9569 22.5384 30.6415 22.6376 30.3162 22.6838L30.2063 22.7025C29.6975 22.7925 29.4 22.8437 29.1225 23.1412C28.9012 23.3787 28.775 23.7763 28.7025 24.3175C28.6725 24.54 28.655 24.7613 28.6363 24.985L28.6275 25.1038C28.6116 25.3578 28.5786 25.6104 28.5288 25.86L28.5225 25.885C29.342 26.7888 30.3418 27.5107 31.4576 28.0041C32.5733 28.4976 33.78 28.7517 35 28.75C36.6875 28.75 38.265 28.2713 39.6025 27.4438C39.4806 27.3226 39.3658 27.1944 39.2587 27.06C38.92 26.635 38.4975 25.9238 38.6438 25.0975C38.7138 24.7063 38.9263 24.3713 39.14 24.105C39.3588 23.835 39.6225 23.5838 39.86 23.365L40.02 23.2188C40.2025 23.0525 40.3612 22.9063 40.4975 22.765C40.6812 22.5725 40.7363 22.4688 40.7475 22.4363C40.8325 22.1538 40.7313 21.9312 40.59 21.8212C40.4725 21.73 40.2213 21.6438 39.8275 21.8938C39.6961 21.9785 39.5614 22.0582 39.4237 22.1325C39.2929 22.2056 39.151 22.2571 39.0038 22.285C38.8809 22.3071 38.7546 22.2984 38.6359 22.2598C38.5173 22.2212 38.41 22.1539 38.3238 22.0638C38.2061 21.9321 38.1288 21.7694 38.1012 21.595C38.0826 21.4808 38.07 21.3656 38.0638 21.25L38.0575 21.1675C38.05 21.075 38.0437 20.98 38.0325 20.87C38.0015 20.5219 37.9417 20.177 37.8538 19.8388C37.695 19.225 37.3037 18.7288 36.8987 18.2138L36.7212 17.9875C36.5212 17.73 36.2675 17.39 36.1763 17.025C36.1153 16.7995 36.1258 16.5606 36.2062 16.3413C36.2962 16.1038 36.46 15.9213 36.6463 15.7813C37.1813 15.3813 38.0563 14.515 38.825 13.7163C39.2038 13.3238 39.545 12.9575 39.7938 12.6888L39.8 12.6813C38.3746 11.7445 36.7056 11.2468 35 11.25ZM40.7975 13.4462L40.7112 13.5387C40.46 13.8112 40.1113 14.1837 39.7263 14.5837C38.9738 15.3662 38.0362 16.3 37.4075 16.775C37.445 16.8575 37.5325 16.995 37.71 17.2238L37.865 17.4213C38.26 17.9175 38.8325 18.6363 39.0638 19.525C39.1925 20.0188 39.2475 20.4313 39.2775 20.755L39.2788 20.7675C40.0138 20.355 40.7913 20.3975 41.3538 20.8338C41.9275 21.2763 42.17 22.0475 41.9438 22.7988C41.8425 23.1338 41.6025 23.4175 41.4013 23.6287C41.2215 23.8121 41.0356 23.9893 40.8438 24.16C40.7978 24.2016 40.752 24.2432 40.7062 24.285C40.4712 24.5025 40.2687 24.7 40.1137 24.8913C39.955 25.0875 39.8912 25.2263 39.875 25.3188C39.825 25.6025 39.965 25.94 40.2375 26.2838C40.3638 26.4438 40.4988 26.5763 40.6013 26.6713L40.6325 26.6975C41.6099 25.877 42.3956 24.8522 42.9342 23.6953C43.4728 22.5383 43.7513 21.2774 43.75 20.0013C43.7515 18.7616 43.489 17.5359 42.9799 16.4057C42.4709 15.2754 41.7269 14.2666 40.7975 13.4462ZM33.4975 11.6925C33.4442 11.5967 33.3888 11.5021 33.3313 11.4088C31.9605 11.6753 30.6735 12.2659 29.5775 13.1313C28.4816 13.9966 27.6086 15.1116 27.0313 16.3831C26.4541 17.6546 26.1895 19.0457 26.2595 20.4404C26.3295 21.835 26.7321 23.1927 27.4338 24.4C27.4426 24.3174 27.4526 24.2349 27.4637 24.1525C27.5412 23.5687 27.705 22.8288 28.2087 22.2888C28.7863 21.67 29.4913 21.5537 29.9638 21.4762L30.0988 21.4525C30.3525 21.4075 30.5188 21.365 30.6525 21.2925C30.8068 21.2037 30.9293 21.0686 31.0025 20.9063C31.04 20.8388 31.0625 20.7225 31.0225 20.4863C30.9758 20.2593 30.9149 20.0355 30.84 19.8162L30.7813 19.625C30.59 19.0038 30.3138 18.0475 30.8863 17.1775C31.3863 16.4188 32.1862 16.225 32.7325 16.0913L32.9013 16.05C33.485 15.9 33.865 15.7475 34.1225 15.2C34.4488 14.505 34.3013 13.585 33.9775 12.725C33.8425 12.3698 33.6821 12.0247 33.4975 11.6925Z" fill="#3786AA" stroke="#3786AA"/>
<path d="M16.172 30.28C14.9027 30.28 13.6707 30.14 12.476 29.86C11.2813 29.5613 10.1987 29.0387 9.228 28.292C8.276 27.5453 7.52 26.5093 6.96 25.184C6.4 23.8587 6.12 22.16 6.12 20.088C6.12 18.1653 6.4 16.5507 6.96 15.244C7.52 13.9373 8.26667 12.892 9.2 12.108C10.1333 11.324 11.1507 10.764 12.252 10.428C13.372 10.0733 14.492 9.896 15.612 9.896C16.564 9.896 17.488 9.97067 18.384 10.12C19.2987 10.2693 19.9613 10.4373 20.372 10.624L23.48 13.172L20.96 17.232L16.172 14.768C14.8467 14.768 13.7267 15.2067 12.812 16.084C11.8973 16.9427 11.44 18.2773 11.44 20.088C11.44 21.376 11.664 22.4213 12.112 23.224C12.5787 24.0267 13.2133 24.6147 14.016 24.988C14.8187 25.3613 15.7333 25.548 16.76 25.548C17.8427 25.548 18.7667 25.464 19.532 25.296C20.2973 25.1093 20.9693 24.8947 21.548 24.652C22.1267 24.3907 22.6773 24.1387 23.2 23.896V28.6C22.5467 29.0107 21.6787 29.3933 20.596 29.748C19.5133 30.1027 18.0387 30.28 16.172 30.28ZM54.9531 30.28C52.0784 30.28 49.9131 29.6267 48.4571 28.32C47.0198 26.9947 46.3011 24.876 46.3011 21.964V14.684L46.3291 11.856L46.3011 10.176H51.3971V21.404C51.3971 22.7107 51.6584 23.7747 52.1811 24.596C52.7038 25.3987 53.6278 25.8 54.9531 25.8C56.2784 25.8 57.2118 25.4267 57.7531 24.68C58.3131 23.9147 58.5931 22.8227 58.5931 21.404V10.176H63.6051V21.964C63.6051 24.82 62.8958 26.92 61.4771 28.264C60.0771 29.608 57.9024 30.28 54.9531 30.28ZM67.533 30V14.684L66.973 11.884L67.533 10.204H72.041L77.697 17.82L79.041 20.144H79.321V10.204H84.613V11.884L84.333 14.684V30H79.937L72.909 20.144H72.629V21.824L72.909 30H67.533ZM92.453 30V14.656L86.853 14.936V10.176H103.233V14.936L97.493 14.656V25.52L97.801 28.32L97.493 30H92.453ZM106.033 30V14.684L105.473 11.856L106.033 10.176H114.993C116.356 10.176 117.578 10.3907 118.661 10.82C119.762 11.2307 120.63 11.94 121.265 12.948C121.918 13.9373 122.245 15.3093 122.245 17.064C122.245 18.6507 121.956 19.9387 121.377 20.928C120.798 21.8987 119.996 22.6267 118.969 23.112L119.249 23.42L122.021 26.892L123.617 28.32V30H117.317L113.397 24.036H111.073V25.492L111.353 28.292L111.073 30H106.033ZM111.073 19.64H113.817C114.788 19.64 115.562 19.4627 116.141 19.108C116.72 18.7347 117.009 18.0533 117.009 17.064C117.009 16.3733 116.869 15.86 116.589 15.524C116.309 15.1693 115.917 14.936 115.413 14.824C114.928 14.712 114.358 14.656 113.705 14.656H110.793L111.073 19.64ZM125.851 30V14.656L125.571 11.856L125.851 10.176H130.919V30H125.851ZM134.826 30L134.266 28.32L134.826 25.52V10.176H148.686L150.086 11.016L148.238 14.936L145.718 14.656H139.866V17.736H147.398V22.076H144.094L139.866 21.796V25.52H148.238L151.57 28.208L149.918 30H134.826ZM160.543 30.28C159.517 30.28 158.546 30.1867 157.631 30C156.717 29.7947 155.923 29.552 155.251 29.272C154.579 28.992 154.085 28.7307 153.767 28.488V23.476C154.663 23.98 155.793 24.456 157.155 24.904C158.518 25.3333 160.03 25.548 161.691 25.548C162.363 25.548 162.858 25.464 163.175 25.296C163.511 25.1093 163.679 24.792 163.679 24.344C163.679 23.8587 163.306 23.4573 162.559 23.14C161.831 22.804 160.674 22.3933 159.087 21.908C157.855 21.516 156.801 21.0867 155.923 20.62C155.065 20.1347 154.402 19.5373 153.935 18.828C153.487 18.1 153.263 17.176 153.263 16.056C153.263 14.8987 153.562 13.8533 154.159 12.92C154.757 11.9867 155.69 11.2493 156.959 10.708C158.229 10.1667 159.853 9.896 161.831 9.896C162.429 9.896 163.063 9.924 163.735 9.98C164.426 10.0173 164.977 10.0733 165.387 10.148L168.551 12.472L167.459 15.888L160.823 14.068C160.058 14.068 159.489 14.2267 159.115 14.544C158.761 14.8613 158.583 15.244 158.583 15.692C158.583 16.2333 158.891 16.6627 159.507 16.98C160.123 17.2973 161.01 17.6147 162.167 17.932C163.997 18.436 165.415 18.996 166.423 19.612C167.431 20.228 168.141 20.928 168.551 21.712C168.962 22.4773 169.167 23.3453 169.167 24.316C169.167 26.108 168.449 27.5547 167.011 28.656C165.574 29.7387 163.418 30.28 160.543 30.28Z" fill="#3786AA"/>
</g>
<defs>
<clipPath id="clip0_1904_6">
<rect width="174" height="40" fill="white"/>
</clipPath>
</defs>
</svg>
